<?xml version="1.0" standalone="no"?>
<!DOCTYPE svg PUBLIC "-//W3C//DTD SVG 20010904//EN"
 "http://www.w3.org/TR/2001/REC-SVG-20010904/DTD/svg10.dtd">
<svg version="1.0" xmlns="http://www.w3.org/2000/svg"
 width="512.000000pt" height="512.000000pt" viewBox="0 0 512.000000 512.000000"
 preserveAspectRatio="xMidYMid meet">

<g transform="translate(0.000000,512.000000) scale(0.100000,-0.100000)"
fill="#556080" stroke="none">
<path d="M2440 4424 c-174 -37 -332 -160 -410 -316 -120 -245 -77 -498 120
-694 l62 -63 -31 -40 c-18 -22 -60 -65 -95 -96 l-63 -55 -92 0 -91 0 0 -140 0
-140 193 0 192 0 -3 -57 c-19 -428 -119 -900 -259 -1220 l-18 -43 -72 0 -73 0
0 -123 0 -122 -140 -140 -140 -140 0 -157 0 -158 1020 0 1020 0 0 158 0 157
-140 140 -140 140 0 122 0 123 -64 0 -65 0 -49 128 c-28 70 -64 176 -81 235
-61 209 -122 542 -136 747 -3 47 -8 113 -11 148 l-6 62 186 0 186 0 0 140 0
140 -87 0 -88 0 -61 53 c-34 28 -76 68 -93 88 l-30 36 47 39 c177 144 262 367
218 574 -38 183 -158 341 -318 420 -135 66 -255 83 -388 54z m255 -79 c180
-47 327 -197 370 -376 57 -242 -48 -476 -263 -587 -213 -111 -459 -70 -626
105 -186 194 -180 529 14 723 128 127 328 181 505 135z m-315 -1071 c104 -38
241 -39 350 -4 41 13 77 24 80 25 3 0 34 -30 69 -67 l64 -68 -400 0 -401 0 64
67 c35 37 64 71 64 76 0 10 1 10 110 -29z m780 -254 l0 -60 -620 0 -620 0 0
60 0 60 620 0 620 0 0 -60z m-360 -200 l0 -60 -252 0 -253 0 3 60 4 60 249 0
249 0 0 -60z m20 -252 c38 -353 126 -710 245 -990 7 -17 -22 -18 -515 -18
-493 0 -522 1 -515 18 97 237 156 446 205 722 15 85 50 345 50 373 0 4 116 7
259 7 l258 0 13 -112z m380 -1180 l0 -93 101 -107 101 -108 -862 0 -862 0 92
100 c51 55 97 103 101 106 5 3 9 48 9 100 l0 94 660 0 660 0 0 -92z m280 -488
l0 -100 -940 0 -940 0 0 100 0 100 940 0 940 0 0 -100z"/>
<path d="M2520 2380 l0 -60 40 0 40 0 0 60 0 60 -40 0 -40 0 0 -60z"/>
<path d="M2520 2140 l0 -60 40 0 40 0 0 60 0 60 -40 0 -40 0 0 -60z"/>
<path d="M2520 1900 l0 -60 40 0 40 0 0 60 0 60 -40 0 -40 0 0 -60z"/>
</g>
</svg>
