<svg xmlns="http://www.w3.org/2000/svg" width="33.843" height="32.917" viewBox="0 0 33.843 32.917">
    <path id="prefix__download-arrow" fill="#4f4c65" stroke="#54516a" stroke-width="0.5px" d="M25.249 17.542a.889.889 0 0 0 0-1.269.874.874 0 0 0-1.256 0l-6.432 6.42V1.48a.894.894 0 0 0-.888-.9.9.9 0 0 0-.9.9v21.214l-6.42-6.42a.9.9 0 0 0-1.269 1.269l7.954 7.957a.911.911 0 0 0 1.269 0zm6.305 5.824a.883.883 0 0 1 .888-.888.894.894 0 0 1 .9.888V32.1a.9.9 0 0 1-.9.9H.888A.894.894 0 0 1 0 32.1v-8.734a.883.883 0 0 1 .888-.888.894.894 0 0 1 .9.888v7.841h29.766z" transform="translate(.25 -.329)"/>
</svg>
