<svg xmlns="http://www.w3.org/2000/svg" width="77.247" height="66.948" viewBox="0 0 77.247 66.948">
    <defs>
        <style>
            .prefix__cls-2{fill:#40587a}
        </style>
    </defs>
    <g id="prefix__Groupe_6050" data-name="Groupe 6050" opacity="0.36">
        <path id="prefix__Tracé_2742" d="M74.23 49.857a9.924 9.924 0 0 0-7.282-3.017h-9.012l-2.051-5.471a7.473 7.473 0 0 0-2.8-3.4 7.165 7.165 0 0 0-4.164-1.429h-20.6a7.166 7.166 0 0 0-4.164 1.429 7.474 7.474 0 0 0-2.8 3.4l-2.045 5.471H10.3a9.924 9.924 0 0 0-7.282 3.017A9.923 9.923 0 0 0 0 57.14v36.048a9.922 9.922 0 0 0 3.017 7.282 9.923 9.923 0 0 0 7.282 3.018h56.648a10.3 10.3 0 0 0 10.3-10.3V57.14a9.922 9.922 0 0 0-3.017-7.283zM51.357 87.9a17.358 17.358 0 0 1-12.734 5.291A17.359 17.359 0 0 1 25.89 87.9a17.969 17.969 0 0 1 0-25.467 17.357 17.357 0 0 1 12.734-5.293 17.359 17.359 0 0 1 12.734 5.291 17.969 17.969 0 0 1 0 25.467z" class="prefix__cls-2" data-name="Tracé 2742" transform="translate(0 -36.54)"/>
        <path id="prefix__Tracé_2743" d="M203.443 228.4a11.609 11.609 0 1 0 8.188 3.4 11.16 11.16 0 0 0-8.188-3.4z" class="prefix__cls-2" data-name="Tracé 2743" transform="translate(-164.82 -201.366)"/>
    </g>
</svg>
