<svg xmlns="http://www.w3.org/2000/svg" id="prefix__pencil" width="20" height="19.999" viewBox="0 0 20 19.999">
    <g id="prefix__Pencil-2" data-name="Pencil">
        <g id="prefix__Groupe_7243" data-name="Groupe 7243">
            <path id="prefix__Tracé_3402" fill="#ec6611" d="M18.922 1.076a3.672 3.672 0 0 0-5.193 0L2.683 12.056a.62.62 0 0 0-.147.229l-2.5 6.875a.625.625 0 0 0 .589.84.617.617 0 0 0 .183-.028l6.218-1.907a.624.624 0 0 0 .259-.155L18.922 6.272a3.671 3.671 0 0 0 0-5.2zM6.307 16.978l-2.327.715a2.67 2.67 0 0 0-.635-1.039 3.377 3.377 0 0 0-.847-.6l1.065-2.929H5v1.25a.624.624 0 0 0 .624.625h1.1zm9.2-9.058l-7.615 7.614.219-1.034a.626.626 0 0 0-.611-.75H6.249V12.5a.625.625 0 0 0-.625-.625h-.986l7.433-7.39.007.007a2.424 2.424 0 1 1 3.428 3.428zm2.531-2.531l-.582.583a3.657 3.657 0 0 0-3.431-3.428l.586-.582a2.423 2.423 0 1 1 3.426 3.428zm-4.105-.2l-6.25 6.25a.625.625 0 1 0 .884.884l6.25-6.25a.625.625 0 0 0-.884-.884z" data-name="Tracé 3402" transform="translate(.001)"/>
        </g>
    </g>
</svg>
