<svg xmlns="http://www.w3.org/2000/svg" id="prefix__Groupe_7496" width="20.043" height="22.085" data-name="Groupe 7496" viewBox="0 0 20.043 22.085">
    <defs>
        <style>
            .prefix__cls-1{fill:#00334e}
        </style>
    </defs>
    <path id="prefix__Tracé_3528" d="M970.034-82.352l-.016-.051c-.02-.072-.043-.141-.065-.211s-.053-.163-.082-.243-.056-.146-.086-.217-.065-.15-.1-.225-.065-.139-.1-.206-.083-.152-.126-.227-.069-.123-.106-.183q-.11-.175-.231-.34c-.044-.06-.092-.118-.138-.177s-.114-.144-.174-.213-.1-.112-.155-.168-.109-.114-.166-.169-.116-.111-.176-.164-.112-.1-.17-.146-.127-.1-.192-.155-.119-.085-.179-.127-.135-.1-.206-.142q-.18-.115-.369-.216c-.07-.038-.143-.07-.215-.105s-.143-.07-.216-.1l-.215-.086c-.072-.028-.162-.061-.244-.089s-.135-.044-.2-.065c-.1-.029-.2-.055-.3-.078-.055-.013-.109-.027-.164-.038-.16-.033-.322-.061-.486-.08a.471.471 0 0 0-.285.078 7.9 7.9 0 0 1-4.657 1.517 7.9 7.9 0 0 1-4.656-1.517.471.471 0 0 0-.285-.078c-.164.019-.326.047-.486.08-.055.011-.109.025-.163.038-.1.024-.2.049-.3.079-.069.02-.136.042-.2.064-.083.028-.164.057-.245.089s-.144.055-.214.086-.145.067-.217.1l-.214.1c-.126.068-.249.14-.369.216-.071.045-.137.094-.206.142s-.12.083-.179.127-.129.1-.193.155l-.17.146c-.055.046-.119.108-.176.164s-.111.112-.166.17-.105.11-.155.167-.117.141-.175.214-.094.116-.138.176q-.121.166-.231.34c-.037.06-.071.122-.106.183s-.086.15-.126.227-.068.137-.1.206-.068.149-.1.225-.058.144-.086.217-.056.161-.082.243-.045.14-.065.211c0 .017-.011.034-.016.051a5.764 5.764 0 0 0-.2 1.462v1.955a.885.885 0 0 0 .478.744 17.441 17.441 0 0 0 5.087 1.168h.047c.325.035.671.065 1.031.093l.074.006q.416.031.864.055l.336.018.425.016c.559.02 1.119.033 1.679.031.56 0 1.12-.01 1.679-.031.142-.005.287-.009.425-.016l.336-.018q.447-.023.863-.055l.075-.006c.359-.028.7-.058 1.03-.093h.047a17.439 17.439 0 0 0 5.087-1.168.885.885 0 0 0 .478-.744v-1.95a5.753 5.753 0 0 0-.203-1.462z" class="prefix__cls-1" data-name="Tracé 3528" transform="translate(-950.189 98.885)"/>
    <path id="prefix__Tracé_3529" d="M964.526-99.994a5.93 5.93 0 0 0 5.931-5.93 5.93 5.93 0 0 0-5.93-5.931 5.93 5.93 0 0 0-5.931 5.93 5.93 5.93 0 0 0 5.93 5.931zm2.809-3.576a2.821 2.821 0 0 1-2.81 1.563 2.821 2.821 0 0 1-2.81-1.563z" class="prefix__cls-1" data-name="Tracé 3529" transform="translate(-954.502 111.854)"/>
</svg>
